<?xml version="1.0" standalone="no"?>
<!DOCTYPE svg PUBLIC "-//W3C//DTD SVG 20010904//EN"
 "http://www.w3.org/TR/2001/REC-SVG-20010904/DTD/svg10.dtd">
<svg version="1.0" xmlns="http://www.w3.org/2000/svg"
 width="612.000000pt" height="612.000000pt" viewBox="0 0 612.000000 612.000000"
 preserveAspectRatio="xMidYMid meet">

<g transform="translate(0.000000,612.000000) scale(0.100000,-0.100000)"
fill="#000000" stroke="none">
<path d="M2737 4487 c-18 -18 -72 -77 -122 -132 -49 -54 -95 -103 -100 -109
-6 -6 -78 -85 -160 -176 -83 -91 -152 -167 -155 -170 -3 -3 -54 -59 -115 -125
-78 -86 -119 -123 -145 -132 -19 -6 -77 -24 -128 -39 -74 -22 -92 -31 -87 -43
4 -9 27 -88 52 -176 60 -216 105 -371 275 -950 72 -248 114 -389 153 -527 19
-66 36 -122 38 -124 1 -2 164 44 362 102 198 58 477 139 620 180 143 42 352
102 465 136 275 80 328 96 593 173 267 77 277 81 277 97 0 13 -16 68 -275 958
-86 294 -175 598 -197 675 -22 77 -42 141 -43 143 -2 2 -29 -2 -61 -9 -57 -11
-65 -10 -229 34 -93 25 -298 80 -455 122 -157 42 -324 87 -372 101 -120 33
-152 32 -191 -9z m402 -73 c113 -31 307 -83 431 -116 124 -33 242 -65 263 -70
20 -6 37 -14 37 -18 0 -4 -33 -17 -72 -28 -75 -20 -485 -139 -758 -219 -85
-25 -247 -72 -360 -105 -227 -66 -389 -113 -525 -153 -49 -15 -98 -29 -109
-33 -27 -7 -18 9 34 65 25 26 117 127 205 223 173 190 223 244 335 363 l74 78
13 -33 c19 -46 59 -73 110 -73 35 0 49 6 75 33 29 29 33 38 32 87 0 30 2 55 4
55 2 0 97 -25 211 -56z m889 -268 c7 -22 33 -110 58 -195 25 -86 60 -208 79
-271 35 -120 126 -433 225 -775 32 -110 72 -247 89 -304 17 -58 28 -108 24
-111 -5 -4 -213 -66 -463 -139 -250 -73 -509 -148 -575 -167 -66 -20 -165 -48
-220 -64 -55 -15 -295 -85 -533 -155 -239 -70 -435 -125 -437 -123 -3 2 -342
1161 -414 1413 -11 39 -33 117 -50 175 -17 57 -27 108 -23 112 4 4 48 19 97
34 50 14 135 40 190 56 55 16 206 60 335 98 266 77 460 133 1110 324 250 74
464 133 475 133 14 -2 24 -14 33 -41z"/>
<path d="M3770 3985 c-152 -45 -339 -100 -650 -190 -102 -29 -318 -92 -480
-140 -162 -47 -380 -111 -485 -141 -104 -30 -198 -57 -207 -60 -23 -7 -22 -24
3 -104 20 -64 71 -239 234 -800 149 -516 157 -540 171 -540 8 0 53 12 101 26
49 14 158 46 243 70 85 25 207 61 270 79 63 19 203 59 310 90 107 31 292 85
410 120 118 35 312 91 432 125 119 35 222 66 228 70 18 11 -399 1440 -420
1439 -8 -1 -80 -20 -160 -44z m144 -13 c2 -4 72 -239 155 -522 219 -755 222
-763 218 -767 -5 -4 -58 47 -232 227 -264 274 -527 541 -530 538 -2 -2 -62
-163 -135 -358 -73 -195 -133 -356 -135 -358 -1 -1 -89 70 -195 158 l-193 161
-74 -143 c-41 -79 -152 -295 -246 -480 -95 -186 -175 -338 -178 -338 -3 0 -20
51 -38 113 -17 61 -102 353 -187 647 -85 294 -157 542 -160 551 -3 12 6 19 33
27 21 5 115 32 208 60 140 41 609 177 1540 449 66 19 122 37 124 39 7 7 19 5
25 -4z m175 -1155 c106 -109 192 -200 189 -202 -4 -4 -27 -11 -538 -160 -184
-53 -393 -114 -464 -136 -72 -21 -132 -37 -134 -35 -2 2 20 66 48 143 29 76
116 311 195 523 79 212 147 393 151 404 8 20 18 10 553 -537z m-1007 -1 l156
-130 -38 -105 c-21 -58 -56 -153 -77 -211 l-38 -104 -90 -28 c-69 -20 -426
-124 -569 -165 -18 -5 -18 -4 1 28 11 19 96 183 188 364 147 289 247 483 262
508 5 9 1 11 205 -157z"/>
<path d="M3089 3487 c-56 -38 -82 -84 -76 -140 13 -147 193 -199 282 -83 36
48 40 131 9 173 -55 74 -148 96 -215 50z"/>
<path d="M990 1230 c0 -143 1 -150 20 -150 18 0 20 8 22 111 l3 111 64 -98
c35 -54 65 -104 68 -111 3 -7 14 -13 24 -13 19 0 19 8 17 148 -3 123 -5 147
-18 147 -12 0 -16 -21 -20 -110 l-5 -110 -49 80 c-117 194 -126 193 -126 -5z"/>
<path d="M1318 1351 c-33 -29 -33 -30 -33 -121 0 -91 0 -92 33 -121 54 -48
139 -30 162 34 13 39 13 150 -1 180 -27 60 -110 74 -161 28z m120 -28 c15 -20
16 -156 2 -184 -8 -14 -21 -19 -50 -19 -54 0 -70 25 -70 113 0 59 3 71 26 93
19 20 31 24 52 19 15 -3 33 -13 40 -22z"/>
<path d="M1680 1230 c0 -127 2 -150 15 -150 8 0 15 5 15 10 1 6 1 69 1 140 0
72 0 135 -1 140 0 6 -7 10 -15 10 -13 0 -15 -23 -15 -150z"/>
<path d="M1800 1231 c0 -126 2 -151 15 -151 11 0 15 20 17 103 l3 102 37 -77
c20 -43 43 -78 50 -78 7 0 30 37 50 83 l37 82 1 -107 c0 -102 1 -108 20 -108
20 0 20 5 18 147 -3 124 -5 148 -19 151 -11 2 -28 -25 -58 -93 -24 -52 -47
-95 -50 -95 -4 0 -26 42 -48 93 -63 139 -73 132 -73 -52z"/>
<path d="M2201 1363 c-22 -41 -103 -274 -98 -279 13 -13 35 6 42 35 7 31 7 31
75 31 l68 0 6 -35 c5 -26 12 -35 26 -35 11 0 20 3 20 8 0 24 -107 292 -117
292 -7 0 -17 -8 -22 -17z m43 -100 c10 -32 21 -64 23 -70 4 -10 -9 -13 -47
-13 -38 0 -51 3 -47 13 2 6 13 38 23 70 10 31 21 57 24 57 3 0 14 -26 24 -57z"/>
<path d="M2409 1351 c-28 -28 -29 -33 -29 -121 0 -88 1 -93 29 -121 31 -31 68
-37 115 -19 32 12 56 58 56 110 l0 40 -50 0 c-38 0 -50 -4 -50 -15 0 -10 10
-15 30 -15 27 0 30 -3 30 -34 0 -57 -57 -82 -104 -45 -24 19 -26 26 -26 95 0
66 3 78 25 99 31 32 57 32 86 0 13 -13 30 -25 37 -25 21 0 13 30 -14 55 -39
36 -96 34 -135 -4z"/>
<path d="M2650 1230 l0 -150 95 0 c88 0 95 1 95 20 0 18 -7 20 -74 20 l-74 0
-4 45 -3 44 65 3 c50 2 65 7 65 18 0 11 -15 16 -62 18 l-63 3 0 50 0 51 63 -2
c83 -3 87 -2 87 15 0 12 -17 15 -95 15 l-95 0 0 -150z"/>
<path d="M3072 1298 c-88 -237 -83 -218 -62 -218 12 0 23 12 31 35 13 35 13
35 75 35 l62 0 12 -35 c8 -24 18 -35 31 -35 10 0 19 3 18 8 0 4 -24 70 -52
147 -34 90 -58 141 -68 143 -12 2 -24 -20 -47 -80z m74 -48 c12 -33 19 -62 16
-65 -9 -8 -92 -6 -92 3 0 20 43 132 48 127 4 -3 16 -33 28 -65z"/>
<path d="M3250 1375 c0 -4 21 -72 47 -151 63 -191 67 -191 128 2 26 80 44 148
41 151 -17 17 -36 -18 -66 -116 -19 -61 -36 -108 -39 -105 -3 3 -22 53 -41
112 -25 77 -40 108 -52 110 -10 2 -18 0 -18 -3z"/>
<path d="M3594 1372 c-12 -7 -37 -70 -85 -209 -26 -77 -26 -83 -9 -83 12 0 22
12 30 35 l12 35 63 0 63 0 12 -35 c8 -23 18 -35 30 -35 18 0 18 1 0 53 -90
251 -92 255 -116 239z m40 -116 c24 -73 22 -76 -29 -76 -56 0 -56 1 -10 129 8
20 20 4 39 -53z"/>
<path d="M3780 1230 c0 -143 1 -150 20 -150 19 0 20 7 20 150 0 143 -1 150
-20 150 -19 0 -20 -7 -20 -150z"/>
<path d="M3900 1230 l0 -151 93 3 c74 2 92 6 92 18 0 12 -17 16 -75 20 l-75 5
0 125 c0 111 -2 125 -17 128 -17 3 -18 -9 -18 -148z"/>
<path d="M4219 1353 c-6 -15 -28 -75 -49 -133 -21 -58 -41 -113 -45 -122 -5
-14 -2 -18 13 -18 14 0 24 10 32 35 l12 35 63 0 63 0 12 -35 c8 -23 18 -35 30
-35 16 0 15 9 -17 98 -19 53 -43 120 -53 147 -20 59 -45 70 -61 28z m51 -94
c28 -76 27 -79 -25 -79 -56 0 -56 1 -10 129 7 19 13 12 35 -50z"/>
<path d="M4420 1230 l0 -152 80 4 c63 2 84 7 99 23 33 34 36 68 7 102 -25 30
-25 30 -6 48 27 24 26 76 -1 101 -16 14 -40 20 -100 23 l-79 3 0 -152z m133
111 c30 -12 39 -34 27 -66 -9 -22 -15 -25 -65 -25 l-55 0 0 50 0 50 34 0 c19
0 46 -4 59 -9z m21 -137 c19 -19 21 -58 4 -72 -7 -6 -35 -12 -63 -13 l-50 -3
-3 52 -3 52 50 0 c32 0 55 -6 65 -16z"/>
<path d="M4700 1230 l0 -150 90 0 c83 0 90 1 90 20 0 18 -7 20 -75 20 l-75 0
0 130 c0 109 -2 130 -15 130 -13 0 -15 -23 -15 -150z"/>
<path d="M4940 1230 l0 -150 96 0 c86 0 95 2 92 18 -3 14 -16 18 -76 20 l-72
3 0 44 0 45 59 0 c41 0 60 4 64 14 9 22 -2 26 -65 26 l-58 0 0 49 c0 48 1 50
28 49 91 -2 122 2 122 17 0 12 -17 15 -95 15 l-95 0 0 -150z"/>
</g>
</svg>
